G04 #@! TF.FileFunction,Legend,Top*
%FSLAX46Y46*%
G04 Gerber Fmt 4.6, Leading zero omitted, Abs format (unit mm)*
G04 Created by KiCad (PCBNEW 4.0.7) date 11/07/17 21:28:30*
%MOMM*%
%LPD*%
G01*
G04 APERTURE LIST*
%ADD10C,0.100000*%
%ADD11C,0.150000*%
%ADD12C,0.120000*%
G04 APERTURE END LIST*
D10*
D11*
X226175000Y-112100000D02*
X222875000Y-112100000D01*
X222875000Y-112100000D02*
X222875000Y-113700000D01*
X222875000Y-113700000D02*
X226175000Y-113700000D01*
X221375000Y-112100000D02*
X218075000Y-112100000D01*
X218075000Y-112100000D02*
X218075000Y-113700000D01*
X218075000Y-113700000D02*
X221375000Y-113700000D01*
X216575000Y-112100000D02*
X213275000Y-112100000D01*
X213275000Y-112100000D02*
X213275000Y-113700000D01*
X213275000Y-113700000D02*
X216575000Y-113700000D01*
X211775000Y-112100000D02*
X208475000Y-112100000D01*
X208475000Y-112100000D02*
X208475000Y-113700000D01*
X208475000Y-113700000D02*
X211775000Y-113700000D01*
X206975000Y-112100000D02*
X203675000Y-112100000D01*
X203675000Y-112100000D02*
X203675000Y-113700000D01*
X203675000Y-113700000D02*
X206975000Y-113700000D01*
X202175000Y-112100000D02*
X198875000Y-112100000D01*
X198875000Y-112100000D02*
X198875000Y-113700000D01*
X198875000Y-113700000D02*
X202175000Y-113700000D01*
X190800000Y-108800000D02*
X193600000Y-108800000D01*
X193600000Y-108400000D02*
X190800000Y-108400000D01*
X191100000Y-107300000D02*
G75*
G03X191100000Y-107300000I-100000J0D01*
G01*
X191100000Y-109900000D02*
G75*
G03X191100000Y-109900000I-100000J0D01*
G01*
X191000000Y-107600000D02*
X190800000Y-107600000D01*
X193400000Y-107600000D02*
X193600000Y-107600000D01*
X193000000Y-108000000D02*
G75*
G03X193400000Y-107600000I0J400000D01*
G01*
X192600000Y-107600000D02*
G75*
G03X193000000Y-108000000I400000J0D01*
G01*
X192200000Y-108000000D02*
G75*
G03X192600000Y-107600000I0J400000D01*
G01*
X191800000Y-107600000D02*
G75*
G03X192200000Y-108000000I400000J0D01*
G01*
X191400000Y-108000000D02*
G75*
G03X191800000Y-107600000I0J400000D01*
G01*
X191000000Y-107600000D02*
G75*
G03X191400000Y-108000000I400000J0D01*
G01*
X191000000Y-109600000D02*
X190800000Y-109600000D01*
X193400000Y-109600000D02*
X193600000Y-109600000D01*
X193400000Y-109600000D02*
G75*
G03X193000000Y-109200000I-400000J0D01*
G01*
X193000000Y-109200000D02*
G75*
G03X192600000Y-109600000I0J-400000D01*
G01*
X191400000Y-109200000D02*
G75*
G03X191000000Y-109600000I0J-400000D01*
G01*
X192200000Y-109200000D02*
G75*
G03X191800000Y-109600000I0J-400000D01*
G01*
X192600000Y-109600000D02*
G75*
G03X192200000Y-109200000I-400000J0D01*
G01*
X191800000Y-109600000D02*
G75*
G03X191400000Y-109200000I-400000J0D01*
G01*
X189950000Y-107000000D02*
X194450000Y-107000000D01*
X194450000Y-107000000D02*
X194450000Y-110200000D01*
X194450000Y-110200000D02*
X189950000Y-110200000D01*
X189950000Y-110200000D02*
X189950000Y-107000000D01*
D12*
X193580000Y-111840000D02*
X192650000Y-111840000D01*
X190420000Y-111840000D02*
X191350000Y-111840000D01*
X190420000Y-111840000D02*
X190420000Y-114000000D01*
X193580000Y-111840000D02*
X193580000Y-113300000D01*
X187520000Y-109100000D02*
X187520000Y-108100000D01*
X188880000Y-108100000D02*
X188880000Y-109100000D01*
M02*
