G04 #@! TF.FileFunction,Copper,L1,Top,Signal*
%FSLAX46Y46*%
G04 Gerber Fmt 4.6, Leading zero omitted, Abs format (unit mm)*
G04 Created by KiCad (PCBNEW 4.0.7) date 11/27/17 09:39:58*
%MOMM*%
%LPD*%
G01*
G04 APERTURE LIST*
%ADD10C,0.100000*%
%ADD11C,2.794000*%
%ADD12R,1.650000X1.140000*%
%ADD13R,0.900000X1.140000*%
%ADD14R,1.100000X1.350000*%
%ADD15R,0.800000X0.900000*%
%ADD16R,0.900000X0.500000*%
%ADD17R,1.000000X1.600000*%
%ADD18C,0.250000*%
%ADD19C,0.127000*%
G04 APERTURE END LIST*
D10*
D11*
X188230000Y-112900000D03*
X195850000Y-112900000D03*
X229378000Y-112900000D03*
X236998000Y-112900000D03*
D12*
X223925000Y-112900000D03*
D13*
X225650000Y-112900000D03*
D12*
X219125000Y-112900000D03*
D13*
X220850000Y-112900000D03*
D12*
X214325000Y-112900000D03*
D13*
X216050000Y-112900000D03*
D12*
X209525000Y-112900000D03*
D13*
X211250000Y-112900000D03*
D12*
X204725000Y-112900000D03*
D13*
X206450000Y-112900000D03*
D12*
X199925000Y-112900000D03*
D13*
X201650000Y-112900000D03*
D14*
X190150000Y-109725000D03*
X194250000Y-109725000D03*
X194250000Y-107475000D03*
X190150000Y-107475000D03*
D15*
X191050000Y-113600000D03*
X192950000Y-113600000D03*
X192000000Y-111600000D03*
D16*
X188200000Y-107850000D03*
X188200000Y-109350000D03*
D17*
X230800000Y-116600000D03*
X233300000Y-116600000D03*
X235800000Y-116600000D03*
X230800000Y-119000000D03*
X233300000Y-119000000D03*
X235800000Y-119000000D03*
D18*
X190150000Y-109725000D02*
X191275000Y-109725000D01*
X191800000Y-109200000D02*
X191800000Y-108600000D01*
X191275000Y-109725000D02*
X191800000Y-109200000D01*
X188230000Y-112900000D02*
X186700000Y-112900000D01*
X193125000Y-108600000D02*
X194250000Y-107475000D01*
X186700000Y-108600000D02*
X191800000Y-108600000D01*
X191800000Y-108600000D02*
X193125000Y-108600000D01*
X186500000Y-108800000D02*
X186700000Y-108600000D01*
X186500000Y-112700000D02*
X186500000Y-108800000D01*
X186700000Y-112900000D02*
X186500000Y-112700000D01*
X224400000Y-115300000D02*
X233100000Y-115300000D01*
X233300000Y-115500000D02*
X233300000Y-116600000D01*
X233100000Y-115300000D02*
X233300000Y-115500000D01*
X200200000Y-115300000D02*
X193200000Y-115300000D01*
X192950000Y-115050000D02*
X192950000Y-113600000D01*
X193200000Y-115300000D02*
X192950000Y-115050000D01*
X205000000Y-115300000D02*
X200200000Y-115300000D01*
X199925000Y-115025000D02*
X199925000Y-112900000D01*
X200200000Y-115300000D02*
X199925000Y-115025000D01*
X209800000Y-115300000D02*
X205000000Y-115300000D01*
X204725000Y-115025000D02*
X204725000Y-112900000D01*
X205000000Y-115300000D02*
X204725000Y-115025000D01*
X214600000Y-115300000D02*
X209800000Y-115300000D01*
X209525000Y-115025000D02*
X209525000Y-112900000D01*
X209800000Y-115300000D02*
X209525000Y-115025000D01*
X219400000Y-115300000D02*
X214600000Y-115300000D01*
X214325000Y-115025000D02*
X214325000Y-112900000D01*
X214600000Y-115300000D02*
X214325000Y-115025000D01*
X224400000Y-115300000D02*
X219400000Y-115300000D01*
X219125000Y-115025000D02*
X219125000Y-112900000D01*
X219400000Y-115300000D02*
X219125000Y-115025000D01*
X223925000Y-114825000D02*
X223925000Y-112900000D01*
X224400000Y-115300000D02*
X223925000Y-114825000D01*
X220525000Y-109725000D02*
X225125000Y-109725000D01*
X225650000Y-110250000D02*
X225650000Y-112900000D01*
X225125000Y-109725000D02*
X225650000Y-110250000D01*
X215725000Y-109725000D02*
X220525000Y-109725000D01*
X220850000Y-110050000D02*
X220850000Y-112900000D01*
X220525000Y-109725000D02*
X220850000Y-110050000D01*
X210925000Y-109725000D02*
X215725000Y-109725000D01*
X216050000Y-110050000D02*
X216050000Y-112900000D01*
X215725000Y-109725000D02*
X216050000Y-110050000D01*
X206125000Y-109725000D02*
X210925000Y-109725000D01*
X211250000Y-110050000D02*
X211250000Y-112900000D01*
X210925000Y-109725000D02*
X211250000Y-110050000D01*
X201325000Y-109725000D02*
X206125000Y-109725000D01*
X206450000Y-110050000D02*
X206450000Y-112900000D01*
X206125000Y-109725000D02*
X206450000Y-110050000D01*
X194250000Y-109725000D02*
X201325000Y-109725000D01*
X201650000Y-110050000D02*
X201650000Y-112900000D01*
X201325000Y-109725000D02*
X201650000Y-110050000D01*
X192000000Y-111600000D02*
X192000000Y-110000000D01*
X192275000Y-109725000D02*
X194250000Y-109725000D01*
X192000000Y-110000000D02*
X192275000Y-109725000D01*
X190150000Y-107475000D02*
X188575000Y-107475000D01*
X188575000Y-107475000D02*
X188200000Y-107850000D01*
X191050000Y-113600000D02*
X191050000Y-111650000D01*
X188200000Y-110400000D02*
X188200000Y-109350000D01*
X188800000Y-111000000D02*
X188200000Y-110400000D01*
X190400000Y-111000000D02*
X188800000Y-111000000D01*
X191050000Y-111650000D02*
X190400000Y-111000000D01*
X235800000Y-116600000D02*
X236700000Y-116600000D01*
X236998000Y-116302000D02*
X236998000Y-112900000D01*
X236700000Y-116600000D02*
X236998000Y-116302000D01*
D19*
G36*
X239130500Y-119630500D02*
X236753208Y-119630500D01*
X236753208Y-118694547D01*
X236877146Y-118694655D01*
X237206031Y-118558762D01*
X237457878Y-118307355D01*
X237594344Y-117978708D01*
X237594655Y-117622854D01*
X237458762Y-117293969D01*
X237207355Y-117042122D01*
X237105547Y-116999847D01*
X237400698Y-116704697D01*
X237524149Y-116519938D01*
X237567500Y-116302000D01*
X237567500Y-114657193D01*
X238039763Y-114462058D01*
X238558237Y-113944488D01*
X238839180Y-113267904D01*
X238839819Y-112535310D01*
X238560058Y-111858237D01*
X238042488Y-111339763D01*
X237365904Y-111058820D01*
X236633310Y-111058181D01*
X235956237Y-111337942D01*
X235437763Y-111855512D01*
X235156820Y-112532096D01*
X235156181Y-113264690D01*
X235435942Y-113941763D01*
X235953512Y-114460237D01*
X236428500Y-114657470D01*
X236428500Y-115372814D01*
X236300000Y-115346792D01*
X235300000Y-115346792D01*
X235135278Y-115377787D01*
X234983991Y-115475137D01*
X234882498Y-115623677D01*
X234846792Y-115800000D01*
X234846792Y-117400000D01*
X234877787Y-117564722D01*
X234975137Y-117716009D01*
X235099369Y-117800893D01*
X234983991Y-117875137D01*
X234882498Y-118023677D01*
X234846792Y-118200000D01*
X234846792Y-119630500D01*
X234253208Y-119630500D01*
X234253208Y-118200000D01*
X234222213Y-118035278D01*
X234124863Y-117883991D01*
X234000631Y-117799107D01*
X234116009Y-117724863D01*
X234217502Y-117576323D01*
X234253208Y-117400000D01*
X234253208Y-115800000D01*
X234222213Y-115635278D01*
X234124863Y-115483991D01*
X233976323Y-115382498D01*
X233840663Y-115355026D01*
X233826149Y-115282062D01*
X233800007Y-115242938D01*
X233702698Y-115097303D01*
X233502697Y-114897303D01*
X233317938Y-114773851D01*
X233100000Y-114730500D01*
X229770084Y-114730500D01*
X230419763Y-114462058D01*
X230938237Y-113944488D01*
X231219180Y-113267904D01*
X231219819Y-112535310D01*
X230940058Y-111858237D01*
X230422488Y-111339763D01*
X229745904Y-111058820D01*
X229013310Y-111058181D01*
X228336237Y-111337942D01*
X227817763Y-111855512D01*
X227536820Y-112532096D01*
X227536181Y-113264690D01*
X227815942Y-113941763D01*
X228333512Y-114460237D01*
X228984376Y-114730500D01*
X224635895Y-114730500D01*
X224494500Y-114589106D01*
X224494500Y-113923208D01*
X224750000Y-113923208D01*
X224914722Y-113892213D01*
X224974384Y-113853822D01*
X225023677Y-113887502D01*
X225200000Y-113923208D01*
X226100000Y-113923208D01*
X226264722Y-113892213D01*
X226416009Y-113794863D01*
X226517502Y-113646323D01*
X226553208Y-113470000D01*
X226553208Y-112330000D01*
X226522213Y-112165278D01*
X226424863Y-112013991D01*
X226276323Y-111912498D01*
X226219500Y-111900991D01*
X226219500Y-110250000D01*
X226176149Y-110032062D01*
X226052697Y-109847303D01*
X225527697Y-109322303D01*
X225342938Y-109198851D01*
X225125000Y-109155500D01*
X195253208Y-109155500D01*
X195253208Y-109050000D01*
X195222213Y-108885278D01*
X195124863Y-108733991D01*
X194976323Y-108632498D01*
X194816423Y-108600118D01*
X194964722Y-108572213D01*
X195116009Y-108474863D01*
X195217502Y-108326323D01*
X195253208Y-108150000D01*
X195253208Y-106800000D01*
X195222213Y-106635278D01*
X195124863Y-106483991D01*
X194976323Y-106382498D01*
X194800000Y-106346792D01*
X193700000Y-106346792D01*
X193535278Y-106377787D01*
X193383991Y-106475137D01*
X193282498Y-106623677D01*
X193246792Y-106800000D01*
X193246792Y-107672814D01*
X192889106Y-108030500D01*
X191153208Y-108030500D01*
X191153208Y-106800000D01*
X191122213Y-106635278D01*
X191024863Y-106483991D01*
X190876323Y-106382498D01*
X190700000Y-106346792D01*
X189600000Y-106346792D01*
X189435278Y-106377787D01*
X189283991Y-106475137D01*
X189182498Y-106623677D01*
X189146792Y-106800000D01*
X189146792Y-106905500D01*
X188575000Y-106905500D01*
X188357062Y-106948851D01*
X188172303Y-107072303D01*
X188097814Y-107146792D01*
X187750000Y-107146792D01*
X187585278Y-107177787D01*
X187433991Y-107275137D01*
X187332498Y-107423677D01*
X187296792Y-107600000D01*
X187296792Y-108030500D01*
X186700000Y-108030500D01*
X186482062Y-108073851D01*
X186297303Y-108197302D01*
X186097303Y-108397303D01*
X186069500Y-108438913D01*
X186069500Y-106169500D01*
X239130500Y-106169500D01*
X239130500Y-119630500D01*
X239130500Y-119630500D01*
G37*
X239130500Y-119630500D02*
X236753208Y-119630500D01*
X236753208Y-118694547D01*
X236877146Y-118694655D01*
X237206031Y-118558762D01*
X237457878Y-118307355D01*
X237594344Y-117978708D01*
X237594655Y-117622854D01*
X237458762Y-117293969D01*
X237207355Y-117042122D01*
X237105547Y-116999847D01*
X237400698Y-116704697D01*
X237524149Y-116519938D01*
X237567500Y-116302000D01*
X237567500Y-114657193D01*
X238039763Y-114462058D01*
X238558237Y-113944488D01*
X238839180Y-113267904D01*
X238839819Y-112535310D01*
X238560058Y-111858237D01*
X238042488Y-111339763D01*
X237365904Y-111058820D01*
X236633310Y-111058181D01*
X235956237Y-111337942D01*
X235437763Y-111855512D01*
X235156820Y-112532096D01*
X235156181Y-113264690D01*
X235435942Y-113941763D01*
X235953512Y-114460237D01*
X236428500Y-114657470D01*
X236428500Y-115372814D01*
X236300000Y-115346792D01*
X235300000Y-115346792D01*
X235135278Y-115377787D01*
X234983991Y-115475137D01*
X234882498Y-115623677D01*
X234846792Y-115800000D01*
X234846792Y-117400000D01*
X234877787Y-117564722D01*
X234975137Y-117716009D01*
X235099369Y-117800893D01*
X234983991Y-117875137D01*
X234882498Y-118023677D01*
X234846792Y-118200000D01*
X234846792Y-119630500D01*
X234253208Y-119630500D01*
X234253208Y-118200000D01*
X234222213Y-118035278D01*
X234124863Y-117883991D01*
X234000631Y-117799107D01*
X234116009Y-117724863D01*
X234217502Y-117576323D01*
X234253208Y-117400000D01*
X234253208Y-115800000D01*
X234222213Y-115635278D01*
X234124863Y-115483991D01*
X233976323Y-115382498D01*
X233840663Y-115355026D01*
X233826149Y-115282062D01*
X233800007Y-115242938D01*
X233702698Y-115097303D01*
X233502697Y-114897303D01*
X233317938Y-114773851D01*
X233100000Y-114730500D01*
X229770084Y-114730500D01*
X230419763Y-114462058D01*
X230938237Y-113944488D01*
X231219180Y-113267904D01*
X231219819Y-112535310D01*
X230940058Y-111858237D01*
X230422488Y-111339763D01*
X229745904Y-111058820D01*
X229013310Y-111058181D01*
X228336237Y-111337942D01*
X227817763Y-111855512D01*
X227536820Y-112532096D01*
X227536181Y-113264690D01*
X227815942Y-113941763D01*
X228333512Y-114460237D01*
X228984376Y-114730500D01*
X224635895Y-114730500D01*
X224494500Y-114589106D01*
X224494500Y-113923208D01*
X224750000Y-113923208D01*
X224914722Y-113892213D01*
X224974384Y-113853822D01*
X225023677Y-113887502D01*
X225200000Y-113923208D01*
X226100000Y-113923208D01*
X226264722Y-113892213D01*
X226416009Y-113794863D01*
X226517502Y-113646323D01*
X226553208Y-113470000D01*
X226553208Y-112330000D01*
X226522213Y-112165278D01*
X226424863Y-112013991D01*
X226276323Y-111912498D01*
X226219500Y-111900991D01*
X226219500Y-110250000D01*
X226176149Y-110032062D01*
X226052697Y-109847303D01*
X225527697Y-109322303D01*
X225342938Y-109198851D01*
X225125000Y-109155500D01*
X195253208Y-109155500D01*
X195253208Y-109050000D01*
X195222213Y-108885278D01*
X195124863Y-108733991D01*
X194976323Y-108632498D01*
X194816423Y-108600118D01*
X194964722Y-108572213D01*
X195116009Y-108474863D01*
X195217502Y-108326323D01*
X195253208Y-108150000D01*
X195253208Y-106800000D01*
X195222213Y-106635278D01*
X195124863Y-106483991D01*
X194976323Y-106382498D01*
X194800000Y-106346792D01*
X193700000Y-106346792D01*
X193535278Y-106377787D01*
X193383991Y-106475137D01*
X193282498Y-106623677D01*
X193246792Y-106800000D01*
X193246792Y-107672814D01*
X192889106Y-108030500D01*
X191153208Y-108030500D01*
X191153208Y-106800000D01*
X191122213Y-106635278D01*
X191024863Y-106483991D01*
X190876323Y-106382498D01*
X190700000Y-106346792D01*
X189600000Y-106346792D01*
X189435278Y-106377787D01*
X189283991Y-106475137D01*
X189182498Y-106623677D01*
X189146792Y-106800000D01*
X189146792Y-106905500D01*
X188575000Y-106905500D01*
X188357062Y-106948851D01*
X188172303Y-107072303D01*
X188097814Y-107146792D01*
X187750000Y-107146792D01*
X187585278Y-107177787D01*
X187433991Y-107275137D01*
X187332498Y-107423677D01*
X187296792Y-107600000D01*
X187296792Y-108030500D01*
X186700000Y-108030500D01*
X186482062Y-108073851D01*
X186297303Y-108197302D01*
X186097303Y-108397303D01*
X186069500Y-108438913D01*
X186069500Y-106169500D01*
X239130500Y-106169500D01*
X239130500Y-119630500D01*
G36*
X193246792Y-110400000D02*
X193277787Y-110564722D01*
X193375137Y-110716009D01*
X193523677Y-110817502D01*
X193700000Y-110853208D01*
X194800000Y-110853208D01*
X194964722Y-110822213D01*
X195116009Y-110724863D01*
X195217502Y-110576323D01*
X195253208Y-110400000D01*
X195253208Y-110294500D01*
X201080500Y-110294500D01*
X201080500Y-111899278D01*
X201035278Y-111907787D01*
X200975616Y-111946178D01*
X200926323Y-111912498D01*
X200750000Y-111876792D01*
X199100000Y-111876792D01*
X198935278Y-111907787D01*
X198783991Y-112005137D01*
X198682498Y-112153677D01*
X198646792Y-112330000D01*
X198646792Y-113470000D01*
X198677787Y-113634722D01*
X198775137Y-113786009D01*
X198923677Y-113887502D01*
X199100000Y-113923208D01*
X199355500Y-113923208D01*
X199355500Y-114730500D01*
X196242084Y-114730500D01*
X196891763Y-114462058D01*
X197410237Y-113944488D01*
X197691180Y-113267904D01*
X197691819Y-112535310D01*
X197412058Y-111858237D01*
X196894488Y-111339763D01*
X196217904Y-111058820D01*
X195485310Y-111058181D01*
X194808237Y-111337942D01*
X194289763Y-111855512D01*
X194008820Y-112532096D01*
X194008181Y-113264690D01*
X194287942Y-113941763D01*
X194805512Y-114460237D01*
X195456376Y-114730500D01*
X193519500Y-114730500D01*
X193519500Y-114469138D01*
X193666009Y-114374863D01*
X193767502Y-114226323D01*
X193803208Y-114050000D01*
X193803208Y-113150000D01*
X193772213Y-112985278D01*
X193674863Y-112833991D01*
X193526323Y-112732498D01*
X193350000Y-112696792D01*
X192550000Y-112696792D01*
X192385278Y-112727787D01*
X192233991Y-112825137D01*
X192132498Y-112973677D01*
X192096792Y-113150000D01*
X192096792Y-114050000D01*
X192127787Y-114214722D01*
X192225137Y-114366009D01*
X192373677Y-114467502D01*
X192380500Y-114468884D01*
X192380500Y-115050000D01*
X192423851Y-115267938D01*
X192547303Y-115452697D01*
X192797302Y-115702697D01*
X192942927Y-115800000D01*
X192982062Y-115826149D01*
X193200000Y-115869500D01*
X229846792Y-115869500D01*
X229846792Y-116905453D01*
X229722854Y-116905345D01*
X229393969Y-117041238D01*
X229142122Y-117292645D01*
X229005656Y-117621292D01*
X229005345Y-117977146D01*
X229141238Y-118306031D01*
X229392645Y-118557878D01*
X229721292Y-118694344D01*
X229846792Y-118694454D01*
X229846792Y-119630500D01*
X186069500Y-119630500D01*
X186069500Y-113061087D01*
X186097303Y-113102697D01*
X186297303Y-113302698D01*
X186444534Y-113401073D01*
X186667942Y-113941763D01*
X187185512Y-114460237D01*
X187862096Y-114741180D01*
X188594690Y-114741819D01*
X189271763Y-114462058D01*
X189790237Y-113944488D01*
X190071180Y-113267904D01*
X190071819Y-112535310D01*
X189792058Y-111858237D01*
X189503824Y-111569500D01*
X190164106Y-111569500D01*
X190480500Y-111885894D01*
X190480500Y-112730862D01*
X190333991Y-112825137D01*
X190232498Y-112973677D01*
X190196792Y-113150000D01*
X190196792Y-114050000D01*
X190227787Y-114214722D01*
X190325137Y-114366009D01*
X190473677Y-114467502D01*
X190650000Y-114503208D01*
X191450000Y-114503208D01*
X191614722Y-114472213D01*
X191766009Y-114374863D01*
X191867502Y-114226323D01*
X191903208Y-114050000D01*
X191903208Y-113150000D01*
X191872213Y-112985278D01*
X191774863Y-112833991D01*
X191626323Y-112732498D01*
X191619500Y-112731116D01*
X191619500Y-112503208D01*
X192400000Y-112503208D01*
X192564722Y-112472213D01*
X192716009Y-112374863D01*
X192817502Y-112226323D01*
X192853208Y-112050000D01*
X192853208Y-111150000D01*
X192822213Y-110985278D01*
X192724863Y-110833991D01*
X192576323Y-110732498D01*
X192569500Y-110731116D01*
X192569500Y-110294500D01*
X193246792Y-110294500D01*
X193246792Y-110400000D01*
X193246792Y-110400000D01*
G37*
X193246792Y-110400000D02*
X193277787Y-110564722D01*
X193375137Y-110716009D01*
X193523677Y-110817502D01*
X193700000Y-110853208D01*
X194800000Y-110853208D01*
X194964722Y-110822213D01*
X195116009Y-110724863D01*
X195217502Y-110576323D01*
X195253208Y-110400000D01*
X195253208Y-110294500D01*
X201080500Y-110294500D01*
X201080500Y-111899278D01*
X201035278Y-111907787D01*
X200975616Y-111946178D01*
X200926323Y-111912498D01*
X200750000Y-111876792D01*
X199100000Y-111876792D01*
X198935278Y-111907787D01*
X198783991Y-112005137D01*
X198682498Y-112153677D01*
X198646792Y-112330000D01*
X198646792Y-113470000D01*
X198677787Y-113634722D01*
X198775137Y-113786009D01*
X198923677Y-113887502D01*
X199100000Y-113923208D01*
X199355500Y-113923208D01*
X199355500Y-114730500D01*
X196242084Y-114730500D01*
X196891763Y-114462058D01*
X197410237Y-113944488D01*
X197691180Y-113267904D01*
X197691819Y-112535310D01*
X197412058Y-111858237D01*
X196894488Y-111339763D01*
X196217904Y-111058820D01*
X195485310Y-111058181D01*
X194808237Y-111337942D01*
X194289763Y-111855512D01*
X194008820Y-112532096D01*
X194008181Y-113264690D01*
X194287942Y-113941763D01*
X194805512Y-114460237D01*
X195456376Y-114730500D01*
X193519500Y-114730500D01*
X193519500Y-114469138D01*
X193666009Y-114374863D01*
X193767502Y-114226323D01*
X193803208Y-114050000D01*
X193803208Y-113150000D01*
X193772213Y-112985278D01*
X193674863Y-112833991D01*
X193526323Y-112732498D01*
X193350000Y-112696792D01*
X192550000Y-112696792D01*
X192385278Y-112727787D01*
X192233991Y-112825137D01*
X192132498Y-112973677D01*
X192096792Y-113150000D01*
X192096792Y-114050000D01*
X192127787Y-114214722D01*
X192225137Y-114366009D01*
X192373677Y-114467502D01*
X192380500Y-114468884D01*
X192380500Y-115050000D01*
X192423851Y-115267938D01*
X192547303Y-115452697D01*
X192797302Y-115702697D01*
X192942927Y-115800000D01*
X192982062Y-115826149D01*
X193200000Y-115869500D01*
X229846792Y-115869500D01*
X229846792Y-116905453D01*
X229722854Y-116905345D01*
X229393969Y-117041238D01*
X229142122Y-117292645D01*
X229005656Y-117621292D01*
X229005345Y-117977146D01*
X229141238Y-118306031D01*
X229392645Y-118557878D01*
X229721292Y-118694344D01*
X229846792Y-118694454D01*
X229846792Y-119630500D01*
X186069500Y-119630500D01*
X186069500Y-113061087D01*
X186097303Y-113102697D01*
X186297303Y-113302698D01*
X186444534Y-113401073D01*
X186667942Y-113941763D01*
X187185512Y-114460237D01*
X187862096Y-114741180D01*
X188594690Y-114741819D01*
X189271763Y-114462058D01*
X189790237Y-113944488D01*
X190071180Y-113267904D01*
X190071819Y-112535310D01*
X189792058Y-111858237D01*
X189503824Y-111569500D01*
X190164106Y-111569500D01*
X190480500Y-111885894D01*
X190480500Y-112730862D01*
X190333991Y-112825137D01*
X190232498Y-112973677D01*
X190196792Y-113150000D01*
X190196792Y-114050000D01*
X190227787Y-114214722D01*
X190325137Y-114366009D01*
X190473677Y-114467502D01*
X190650000Y-114503208D01*
X191450000Y-114503208D01*
X191614722Y-114472213D01*
X191766009Y-114374863D01*
X191867502Y-114226323D01*
X191903208Y-114050000D01*
X191903208Y-113150000D01*
X191872213Y-112985278D01*
X191774863Y-112833991D01*
X191626323Y-112732498D01*
X191619500Y-112731116D01*
X191619500Y-112503208D01*
X192400000Y-112503208D01*
X192564722Y-112472213D01*
X192716009Y-112374863D01*
X192817502Y-112226323D01*
X192853208Y-112050000D01*
X192853208Y-111150000D01*
X192822213Y-110985278D01*
X192724863Y-110833991D01*
X192576323Y-110732498D01*
X192569500Y-110731116D01*
X192569500Y-110294500D01*
X193246792Y-110294500D01*
X193246792Y-110400000D01*
G36*
X232346792Y-117400000D02*
X232377787Y-117564722D01*
X232475137Y-117716009D01*
X232599369Y-117800893D01*
X232483991Y-117875137D01*
X232382498Y-118023677D01*
X232346792Y-118200000D01*
X232346792Y-119630500D01*
X231753208Y-119630500D01*
X231753208Y-118200000D01*
X231722213Y-118035278D01*
X231624863Y-117883991D01*
X231500631Y-117799107D01*
X231616009Y-117724863D01*
X231717502Y-117576323D01*
X231753208Y-117400000D01*
X231753208Y-115869500D01*
X232346792Y-115869500D01*
X232346792Y-117400000D01*
X232346792Y-117400000D01*
G37*
X232346792Y-117400000D02*
X232377787Y-117564722D01*
X232475137Y-117716009D01*
X232599369Y-117800893D01*
X232483991Y-117875137D01*
X232382498Y-118023677D01*
X232346792Y-118200000D01*
X232346792Y-119630500D01*
X231753208Y-119630500D01*
X231753208Y-118200000D01*
X231722213Y-118035278D01*
X231624863Y-117883991D01*
X231500631Y-117799107D01*
X231616009Y-117724863D01*
X231717502Y-117576323D01*
X231753208Y-117400000D01*
X231753208Y-115869500D01*
X232346792Y-115869500D01*
X232346792Y-117400000D01*
G36*
X225080500Y-110485894D02*
X225080500Y-111899278D01*
X225035278Y-111907787D01*
X224975616Y-111946178D01*
X224926323Y-111912498D01*
X224750000Y-111876792D01*
X223100000Y-111876792D01*
X222935278Y-111907787D01*
X222783991Y-112005137D01*
X222682498Y-112153677D01*
X222646792Y-112330000D01*
X222646792Y-113470000D01*
X222677787Y-113634722D01*
X222775137Y-113786009D01*
X222923677Y-113887502D01*
X223100000Y-113923208D01*
X223355500Y-113923208D01*
X223355500Y-114730500D01*
X219694500Y-114730500D01*
X219694500Y-113923208D01*
X219950000Y-113923208D01*
X220114722Y-113892213D01*
X220174384Y-113853822D01*
X220223677Y-113887502D01*
X220400000Y-113923208D01*
X221300000Y-113923208D01*
X221464722Y-113892213D01*
X221616009Y-113794863D01*
X221717502Y-113646323D01*
X221753208Y-113470000D01*
X221753208Y-112330000D01*
X221722213Y-112165278D01*
X221624863Y-112013991D01*
X221476323Y-111912498D01*
X221419500Y-111900991D01*
X221419500Y-110294500D01*
X224889106Y-110294500D01*
X225080500Y-110485894D01*
X225080500Y-110485894D01*
G37*
X225080500Y-110485894D02*
X225080500Y-111899278D01*
X225035278Y-111907787D01*
X224975616Y-111946178D01*
X224926323Y-111912498D01*
X224750000Y-111876792D01*
X223100000Y-111876792D01*
X222935278Y-111907787D01*
X222783991Y-112005137D01*
X222682498Y-112153677D01*
X222646792Y-112330000D01*
X222646792Y-113470000D01*
X222677787Y-113634722D01*
X222775137Y-113786009D01*
X222923677Y-113887502D01*
X223100000Y-113923208D01*
X223355500Y-113923208D01*
X223355500Y-114730500D01*
X219694500Y-114730500D01*
X219694500Y-113923208D01*
X219950000Y-113923208D01*
X220114722Y-113892213D01*
X220174384Y-113853822D01*
X220223677Y-113887502D01*
X220400000Y-113923208D01*
X221300000Y-113923208D01*
X221464722Y-113892213D01*
X221616009Y-113794863D01*
X221717502Y-113646323D01*
X221753208Y-113470000D01*
X221753208Y-112330000D01*
X221722213Y-112165278D01*
X221624863Y-112013991D01*
X221476323Y-111912498D01*
X221419500Y-111900991D01*
X221419500Y-110294500D01*
X224889106Y-110294500D01*
X225080500Y-110485894D01*
G36*
X215480500Y-111899278D02*
X215435278Y-111907787D01*
X215375616Y-111946178D01*
X215326323Y-111912498D01*
X215150000Y-111876792D01*
X213500000Y-111876792D01*
X213335278Y-111907787D01*
X213183991Y-112005137D01*
X213082498Y-112153677D01*
X213046792Y-112330000D01*
X213046792Y-113470000D01*
X213077787Y-113634722D01*
X213175137Y-113786009D01*
X213323677Y-113887502D01*
X213500000Y-113923208D01*
X213755500Y-113923208D01*
X213755500Y-114730500D01*
X210094500Y-114730500D01*
X210094500Y-113923208D01*
X210350000Y-113923208D01*
X210514722Y-113892213D01*
X210574384Y-113853822D01*
X210623677Y-113887502D01*
X210800000Y-113923208D01*
X211700000Y-113923208D01*
X211864722Y-113892213D01*
X212016009Y-113794863D01*
X212117502Y-113646323D01*
X212153208Y-113470000D01*
X212153208Y-112330000D01*
X212122213Y-112165278D01*
X212024863Y-112013991D01*
X211876323Y-111912498D01*
X211819500Y-111900991D01*
X211819500Y-110294500D01*
X215480500Y-110294500D01*
X215480500Y-111899278D01*
X215480500Y-111899278D01*
G37*
X215480500Y-111899278D02*
X215435278Y-111907787D01*
X215375616Y-111946178D01*
X215326323Y-111912498D01*
X215150000Y-111876792D01*
X213500000Y-111876792D01*
X213335278Y-111907787D01*
X213183991Y-112005137D01*
X213082498Y-112153677D01*
X213046792Y-112330000D01*
X213046792Y-113470000D01*
X213077787Y-113634722D01*
X213175137Y-113786009D01*
X213323677Y-113887502D01*
X213500000Y-113923208D01*
X213755500Y-113923208D01*
X213755500Y-114730500D01*
X210094500Y-114730500D01*
X210094500Y-113923208D01*
X210350000Y-113923208D01*
X210514722Y-113892213D01*
X210574384Y-113853822D01*
X210623677Y-113887502D01*
X210800000Y-113923208D01*
X211700000Y-113923208D01*
X211864722Y-113892213D01*
X212016009Y-113794863D01*
X212117502Y-113646323D01*
X212153208Y-113470000D01*
X212153208Y-112330000D01*
X212122213Y-112165278D01*
X212024863Y-112013991D01*
X211876323Y-111912498D01*
X211819500Y-111900991D01*
X211819500Y-110294500D01*
X215480500Y-110294500D01*
X215480500Y-111899278D01*
G36*
X210680500Y-111899278D02*
X210635278Y-111907787D01*
X210575616Y-111946178D01*
X210526323Y-111912498D01*
X210350000Y-111876792D01*
X208700000Y-111876792D01*
X208535278Y-111907787D01*
X208383991Y-112005137D01*
X208282498Y-112153677D01*
X208246792Y-112330000D01*
X208246792Y-113470000D01*
X208277787Y-113634722D01*
X208375137Y-113786009D01*
X208523677Y-113887502D01*
X208700000Y-113923208D01*
X208955500Y-113923208D01*
X208955500Y-114730500D01*
X205294500Y-114730500D01*
X205294500Y-113923208D01*
X205550000Y-113923208D01*
X205714722Y-113892213D01*
X205774384Y-113853822D01*
X205823677Y-113887502D01*
X206000000Y-113923208D01*
X206900000Y-113923208D01*
X207064722Y-113892213D01*
X207216009Y-113794863D01*
X207317502Y-113646323D01*
X207353208Y-113470000D01*
X207353208Y-112330000D01*
X207322213Y-112165278D01*
X207224863Y-112013991D01*
X207076323Y-111912498D01*
X207019500Y-111900991D01*
X207019500Y-110294500D01*
X210680500Y-110294500D01*
X210680500Y-111899278D01*
X210680500Y-111899278D01*
G37*
X210680500Y-111899278D02*
X210635278Y-111907787D01*
X210575616Y-111946178D01*
X210526323Y-111912498D01*
X210350000Y-111876792D01*
X208700000Y-111876792D01*
X208535278Y-111907787D01*
X208383991Y-112005137D01*
X208282498Y-112153677D01*
X208246792Y-112330000D01*
X208246792Y-113470000D01*
X208277787Y-113634722D01*
X208375137Y-113786009D01*
X208523677Y-113887502D01*
X208700000Y-113923208D01*
X208955500Y-113923208D01*
X208955500Y-114730500D01*
X205294500Y-114730500D01*
X205294500Y-113923208D01*
X205550000Y-113923208D01*
X205714722Y-113892213D01*
X205774384Y-113853822D01*
X205823677Y-113887502D01*
X206000000Y-113923208D01*
X206900000Y-113923208D01*
X207064722Y-113892213D01*
X207216009Y-113794863D01*
X207317502Y-113646323D01*
X207353208Y-113470000D01*
X207353208Y-112330000D01*
X207322213Y-112165278D01*
X207224863Y-112013991D01*
X207076323Y-111912498D01*
X207019500Y-111900991D01*
X207019500Y-110294500D01*
X210680500Y-110294500D01*
X210680500Y-111899278D01*
G36*
X220280500Y-111899278D02*
X220235278Y-111907787D01*
X220175616Y-111946178D01*
X220126323Y-111912498D01*
X219950000Y-111876792D01*
X218300000Y-111876792D01*
X218135278Y-111907787D01*
X217983991Y-112005137D01*
X217882498Y-112153677D01*
X217846792Y-112330000D01*
X217846792Y-113470000D01*
X217877787Y-113634722D01*
X217975137Y-113786009D01*
X218123677Y-113887502D01*
X218300000Y-113923208D01*
X218555500Y-113923208D01*
X218555500Y-114730500D01*
X214894500Y-114730500D01*
X214894500Y-113923208D01*
X215150000Y-113923208D01*
X215314722Y-113892213D01*
X215374384Y-113853822D01*
X215423677Y-113887502D01*
X215600000Y-113923208D01*
X216500000Y-113923208D01*
X216664722Y-113892213D01*
X216816009Y-113794863D01*
X216917502Y-113646323D01*
X216953208Y-113470000D01*
X216953208Y-112330000D01*
X216922213Y-112165278D01*
X216824863Y-112013991D01*
X216676323Y-111912498D01*
X216619500Y-111900991D01*
X216619500Y-110294500D01*
X220280500Y-110294500D01*
X220280500Y-111899278D01*
X220280500Y-111899278D01*
G37*
X220280500Y-111899278D02*
X220235278Y-111907787D01*
X220175616Y-111946178D01*
X220126323Y-111912498D01*
X219950000Y-111876792D01*
X218300000Y-111876792D01*
X218135278Y-111907787D01*
X217983991Y-112005137D01*
X217882498Y-112153677D01*
X217846792Y-112330000D01*
X217846792Y-113470000D01*
X217877787Y-113634722D01*
X217975137Y-113786009D01*
X218123677Y-113887502D01*
X218300000Y-113923208D01*
X218555500Y-113923208D01*
X218555500Y-114730500D01*
X214894500Y-114730500D01*
X214894500Y-113923208D01*
X215150000Y-113923208D01*
X215314722Y-113892213D01*
X215374384Y-113853822D01*
X215423677Y-113887502D01*
X215600000Y-113923208D01*
X216500000Y-113923208D01*
X216664722Y-113892213D01*
X216816009Y-113794863D01*
X216917502Y-113646323D01*
X216953208Y-113470000D01*
X216953208Y-112330000D01*
X216922213Y-112165278D01*
X216824863Y-112013991D01*
X216676323Y-111912498D01*
X216619500Y-111900991D01*
X216619500Y-110294500D01*
X220280500Y-110294500D01*
X220280500Y-111899278D01*
G36*
X205880500Y-111899278D02*
X205835278Y-111907787D01*
X205775616Y-111946178D01*
X205726323Y-111912498D01*
X205550000Y-111876792D01*
X203900000Y-111876792D01*
X203735278Y-111907787D01*
X203583991Y-112005137D01*
X203482498Y-112153677D01*
X203446792Y-112330000D01*
X203446792Y-113470000D01*
X203477787Y-113634722D01*
X203575137Y-113786009D01*
X203723677Y-113887502D01*
X203900000Y-113923208D01*
X204155500Y-113923208D01*
X204155500Y-114730500D01*
X200494500Y-114730500D01*
X200494500Y-113923208D01*
X200750000Y-113923208D01*
X200914722Y-113892213D01*
X200974384Y-113853822D01*
X201023677Y-113887502D01*
X201200000Y-113923208D01*
X202100000Y-113923208D01*
X202264722Y-113892213D01*
X202416009Y-113794863D01*
X202517502Y-113646323D01*
X202553208Y-113470000D01*
X202553208Y-112330000D01*
X202522213Y-112165278D01*
X202424863Y-112013991D01*
X202276323Y-111912498D01*
X202219500Y-111900991D01*
X202219500Y-110294500D01*
X205880500Y-110294500D01*
X205880500Y-111899278D01*
X205880500Y-111899278D01*
G37*
X205880500Y-111899278D02*
X205835278Y-111907787D01*
X205775616Y-111946178D01*
X205726323Y-111912498D01*
X205550000Y-111876792D01*
X203900000Y-111876792D01*
X203735278Y-111907787D01*
X203583991Y-112005137D01*
X203482498Y-112153677D01*
X203446792Y-112330000D01*
X203446792Y-113470000D01*
X203477787Y-113634722D01*
X203575137Y-113786009D01*
X203723677Y-113887502D01*
X203900000Y-113923208D01*
X204155500Y-113923208D01*
X204155500Y-114730500D01*
X200494500Y-114730500D01*
X200494500Y-113923208D01*
X200750000Y-113923208D01*
X200914722Y-113892213D01*
X200974384Y-113853822D01*
X201023677Y-113887502D01*
X201200000Y-113923208D01*
X202100000Y-113923208D01*
X202264722Y-113892213D01*
X202416009Y-113794863D01*
X202517502Y-113646323D01*
X202553208Y-113470000D01*
X202553208Y-112330000D01*
X202522213Y-112165278D01*
X202424863Y-112013991D01*
X202276323Y-111912498D01*
X202219500Y-111900991D01*
X202219500Y-110294500D01*
X205880500Y-110294500D01*
X205880500Y-111899278D01*
G36*
X187296792Y-109600000D02*
X187327787Y-109764722D01*
X187425137Y-109916009D01*
X187573677Y-110017502D01*
X187630500Y-110029009D01*
X187630500Y-110400000D01*
X187673851Y-110617938D01*
X187797303Y-110802697D01*
X188052951Y-111058345D01*
X187865310Y-111058181D01*
X187188237Y-111337942D01*
X187069500Y-111456472D01*
X187069500Y-109169500D01*
X187296792Y-109169500D01*
X187296792Y-109600000D01*
X187296792Y-109600000D01*
G37*
X187296792Y-109600000D02*
X187327787Y-109764722D01*
X187425137Y-109916009D01*
X187573677Y-110017502D01*
X187630500Y-110029009D01*
X187630500Y-110400000D01*
X187673851Y-110617938D01*
X187797303Y-110802697D01*
X188052951Y-111058345D01*
X187865310Y-111058181D01*
X187188237Y-111337942D01*
X187069500Y-111456472D01*
X187069500Y-109169500D01*
X187296792Y-109169500D01*
X187296792Y-109600000D01*
M02*
