<?xml version="1.0" standalone="no"?>
 <!DOCTYPE svg PUBLIC "-//W3C//DTD SVG 1.1//EN" 
 "http://www.w3.org/Graphics/SVG/1.1/DTD/svg11.dtd"> 
<svg xmlns="http://www.w3.org/2000/svg" version="1.1" 
    width="5.45846cm" height="1.54686cm" viewBox="0 0 21490 6090 ">
<title>SVG Picture created as Multi-LED_JT_V2-brd.svg date 2017/11/27 09:02:40 </title>
  <desc>Picture generated by PCBNEW </desc>
<g style="fill:#000000; fill-opacity:1;stroke:#000000; stroke-opacity:1;
stroke-linecap:round; stroke-linejoin:round; "
 transform="translate(0 0) scale(1 1)">
</g>
<g style="fill:#000000; fill-opacity:0.0; 
stroke:#000000; stroke-width:-0.000393701; stroke-opacity:1; 
stroke-linecap:round; stroke-linejoin:round;">
</g>
<g style="fill:#000000; fill-opacity:1.0; 
stroke:#000000; stroke-width:0; stroke-opacity:1; 
stroke-linecap:round; stroke-linejoin:round;">
<circle cx="1153.54" cy="3139.76" r="550" /> 
</g>
<g style="fill:#000000; fill-opacity:1.0; 
stroke:#000000; stroke-width:39.3701; stroke-opacity:1; 
stroke-linecap:round; stroke-linejoin:round;">
</g>
<g style="fill:#000000; fill-opacity:1.0; 
stroke:#000000; stroke-width:0; stroke-opacity:1; 
stroke-linecap:round; stroke-linejoin:round;">
<circle cx="4153.54" cy="3139.76" r="550" /> 
</g>
<g style="fill:#000000; fill-opacity:1.0; 
stroke:#000000; stroke-width:39.3701; stroke-opacity:1; 
stroke-linecap:round; stroke-linejoin:round;">
</g>
<g style="fill:#000000; fill-opacity:1.0; 
stroke:#000000; stroke-width:0; stroke-opacity:1; 
stroke-linecap:round; stroke-linejoin:round;">
<circle cx="17353.5" cy="3139.76" r="550" /> 
</g>
<g style="fill:#000000; fill-opacity:1.0; 
stroke:#000000; stroke-width:39.3701; stroke-opacity:1; 
stroke-linecap:round; stroke-linejoin:round;">
</g>
<g style="fill:#000000; fill-opacity:1.0; 
stroke:#000000; stroke-width:0; stroke-opacity:1; 
stroke-linecap:round; stroke-linejoin:round;">
<circle cx="20353.5" cy="3139.76" r="550" /> 
</g>
<g style="fill:#000000; fill-opacity:1.0; 
stroke:#000000; stroke-width:39.3701; stroke-opacity:1; 
stroke-linecap:round; stroke-linejoin:round;">
</g>
<g style="fill:#000000; fill-opacity:1.0; 
stroke:#000000; stroke-width:0; stroke-opacity:1; 
stroke-linecap:round; stroke-linejoin:round;">
<polyline style="fill-rule:evenodd;"
points="14881,3364
14881,2915
15531,2915
15531,3364
14881,3364
" /> 
<polyline style="fill-rule:evenodd;"
points="15708,3364
15708,2915
16062,2915
16062,3364
15708,3364
" /> 
<polyline style="fill-rule:evenodd;"
points="12992,3364
12992,2915
13641,2915
13641,3364
12992,3364
" /> 
<polyline style="fill-rule:evenodd;"
points="13818,3364
13818,2915
14173,2915
14173,3364
13818,3364
" /> 
<polyline style="fill-rule:evenodd;"
points="11102,3364
11102,2915
11751,2915
11751,3364
11102,3364
" /> 
<polyline style="fill-rule:evenodd;"
points="11929,3364
11929,2915
12283,2915
12283,3364
11929,3364
" /> 
<polyline style="fill-rule:evenodd;"
points="9212,3364
9212,2915
9862,2915
9862,3364
9212,3364
" /> 
<polyline style="fill-rule:evenodd;"
points="10039,3364
10039,2915
10393,2915
10393,3364
10039,3364
" /> 
<polyline style="fill-rule:evenodd;"
points="7322,3364
7322,2915
7972,2915
7972,3364
7322,3364
" /> 
<polyline style="fill-rule:evenodd;"
points="8149,3364
8149,2915
8503,2915
8503,3364
8149,3364
" /> 
<polyline style="fill-rule:evenodd;"
points="5433,3364
5433,2915
6082,2915
6082,3364
5433,3364
" /> 
<polyline style="fill-rule:evenodd;"
points="6259,3364
6259,2915
6614,2915
6614,3364
6259,3364
" /> 
<polyline style="fill-rule:evenodd;"
points="1692,2155
1692,1624
2125,1624
2125,2155
1692,2155
" /> 
<polyline style="fill-rule:evenodd;"
points="3307,2155
3307,1624
3740,1624
3740,2155
3307,2155
" /> 
<polyline style="fill-rule:evenodd;"
points="3307,1269
3307,738
3740,738
3740,1269
3307,1269
" /> 
<polyline style="fill-rule:evenodd;"
points="1692,1269
1692,738
2125,738
2125,1269
1692,1269
" /> 
<polyline style="fill-rule:evenodd;"
points="2421,3592
2106,3592
2106,3238
2421,3238
2421,3592
" /> 
<polyline style="fill-rule:evenodd;"
points="3169,3592
2854,3592
2854,3238
3169,3238
3169,3592
" /> 
<polyline style="fill-rule:evenodd;"
points="2795,2805
2480,2805
2480,2450
2795,2450
2795,2805
" /> 
<polyline style="fill-rule:evenodd;"
points="964,1053
1318,1053
1318,1250
964,1250
964,1053
" /> 
<polyline style="fill-rule:evenodd;"
points="964,1643
1318,1643
1318,1840
964,1840
964,1643
" /> 
<polyline style="fill-rule:evenodd;"
points="17716,4911
17716,4281
18110,4281
18110,4911
17716,4911
" /> 
<polyline style="fill-rule:evenodd;"
points="18700,4911
18700,4281
19094,4281
19094,4911
18700,4911
" /> 
<polyline style="fill-rule:evenodd;"
points="19685,4911
19685,4281
20078,4281
20078,4911
19685,4911
" /> 
<polyline style="fill-rule:evenodd;"
points="17716,5856
17716,5226
18110,5226
18110,5856
17716,5856
" /> 
<polyline style="fill-rule:evenodd;"
points="18700,5856
18700,5226
19094,5226
19094,5856
18700,5856
" /> 
<polyline style="fill-rule:evenodd;"
points="19685,5856
19685,5226
20078,5226
20078,5856
19685,5856
" /> 
</g>
<g style="fill:#000000; fill-opacity:1.0; 
stroke:#000000; stroke-width:98.4252; stroke-opacity:1; 
stroke-linecap:round; stroke-linejoin:round;">
</g>
<g style="fill:#000000; fill-opacity:0.0; 
stroke:#000000; stroke-width:98.4252; stroke-opacity:1; 
stroke-linecap:round; stroke-linejoin:round;">
<path d="M1909 1889
L2352 1889
" />
<path d="M2559 1683
L2559 1446
" />
<path d="M2352 1889
L2559 1683
" />
<path d="M1153 3139
L551 3139
" />
<path d="M3080 1446
L3523 1003
" />
<path d="M551 1446
L2559 1446
" />
<path d="M2559 1446
L3080 1446
" />
<path d="M472 1525
L551 1446
" />
<path d="M472 3061
L472 1525
" />
<path d="M551 3139
L472 3061
" />
<path d="M15393 4084
L18818 4084
" />
<path d="M18897 4163
L18897 4596
" />
<path d="M18818 4084
L18897 4163
" />
<path d="M5866 4084
L3110 4084
" />
<path d="M3011 3986
L3011 3415
" />
<path d="M3110 4084
L3011 3986
" />
<path d="M7755 4084
L5866 4084
" />
<path d="M5757 3976
L5757 3139
" />
<path d="M5866 4084
L5757 3976
" />
<path d="M9645 4084
L7755 4084
" />
<path d="M7647 3976
L7647 3139
" />
<path d="M7755 4084
L7647 3976
" />
<path d="M11535 4084
L9645 4084
" />
<path d="M9537 3976
L9537 3139
" />
<path d="M9645 4084
L9537 3976
" />
<path d="M13425 4084
L11535 4084
" />
<path d="M11427 3976
L11427 3139
" />
<path d="M11535 4084
L11427 3976
" />
<path d="M15393 4084
L13425 4084
" />
<path d="M13316 3976
L13316 3139
" />
<path d="M13425 4084
L13316 3976
" />
<path d="M15206 3897
L15206 3139
" />
<path d="M15393 4084
L15206 3897
" />
<path d="M13868 1889
L15679 1889
" />
<path d="M15885 2096
L15885 3139
" />
<path d="M15679 1889
L15885 2096
" />
<path d="M11978 1889
L13868 1889
" />
<path d="M13996 2017
L13996 3139
" />
<path d="M13868 1889
L13996 2017
" />
<path d="M10088 1889
L11978 1889
" />
<path d="M12106 2017
L12106 3139
" />
<path d="M11978 1889
L12106 2017
" />
<path d="M8198 1889
L10088 1889
" />
<path d="M10216 2017
L10216 3139
" />
<path d="M10088 1889
L10216 2017
" />
<path d="M6309 1889
L8198 1889
" />
<path d="M8326 2017
L8326 3139
" />
<path d="M8198 1889
L8326 2017
" />
<path d="M3523 1889
L6309 1889
" />
<path d="M6437 2017
L6437 3139
" />
<path d="M6309 1889
L6437 2017
" />
<path d="M2637 2627
L2637 1998
" />
<path d="M2746 1889
L3523 1889
" />
<path d="M2637 1998
L2746 1889
" />
<path d="M1909 1003
L1289 1003
" />
<path d="M1289 1003
L1141 1151
" />
<path d="M2263 3415
L2263 2647
" />
<path d="M1141 2155
L1141 1742
" />
<path d="M1377 2391
L1141 2155
" />
<path d="M2007 2391
L1377 2391
" />
<path d="M2263 2647
L2007 2391
" />
<path d="M19881 4596
L20236 4596
" />
<path d="M20353 4479
L20353 3139
" />
<path d="M20236 4596
L20353 4479
" />
</g>
<g style="fill:#000000; fill-opacity:1.0; 
stroke:#000000; stroke-width:50; stroke-opacity:1; 
stroke-linecap:round; stroke-linejoin:round;">
<polyline style="fill-rule:evenodd;"
points="21193,5789
20257,5789
20257,5421
20305,5421
20435,5367
20534,5268
20588,5139
20588,4999
20534,4869
20435,4770
20395,4753
20512,4637
20560,4564
20577,4479
20577,3831
20763,3754
20967,3550
21078,3284
21078,2996
20968,2729
20764,2525
20498,2414
20209,2414
19943,2524
19739,2728
19628,2994
19628,3283
19738,3549
19942,3754
20129,3831
20129,4113
20078,4103
19685,4103
19620,4115
19560,4153
19520,4212
19506,4281
19506,4911
19518,4976
19557,5035
19606,5069
19560,5098
19520,5156
19506,5226
19506,5789
19272,5789
19272,5226
19260,5161
19222,5101
19173,5068
19218,5039
19258,4980
19272,4911
19272,4281
19260,4216
19222,4157
19163,4117
19110,4106
19104,4077
19094,4062
19056,4004
18977,3926
18904,3877
18818,3860
17507,3860
17763,3754
17967,3550
18078,3284
18078,2996
17968,2729
17764,2525
17498,2414
17209,2414
16943,2524
16739,2728
16628,2994
16628,3283
16738,3549
16942,3754
17198,3860
15486,3860
15430,3804
15430,3542
15531,3542
15596,3530
15619,3515
15639,3528
15708,3542
16062,3542
16127,3530
16187,3492
16227,3433
16241,3364
16241,2915
16229,2850
16190,2790
16132,2750
16110,2746
16110,2096
16092,2010
16044,1937
15837,1731
15764,1682
15679,1665
3918,1665
3918,1624
3906,1559
3868,1499
3809,1459
3746,1446
3805,1435
3864,1397
3904,1339
3918,1269
3918,738
3906,673
3868,613
3809,573
3740,559
3307,559
3242,571
3182,610
3142,668
3128,738
3128,1081
2987,1222
2304,1222
2304,738
2292,673
2253,613
2195,573
2125,559
1692,559
1628,571
1568,610
1528,668
1514,738
1514,779
1289,779
1203,796
1130,845
1101,874
964,874
899,886
840,925
800,983
786,1053
786,1222
551,1222
465,1239
392,1288
313,1367
302,1383
302,489
21193,489
21193,5789
" /> 
<polyline style="fill-rule:evenodd;"
points="18522,4911
18534,4976
18572,5035
18621,5069
18576,5098
18536,5156
18522,5226
18522,5789
18288,5789
18288,5226
18276,5161
18238,5101
18189,5068
18234,5039
18274,4980
18288,4911
18288,4308
18522,4308
18522,4911
" /> 
<polyline style="fill-rule:evenodd;"
points="3128,2155
3140,2220
3179,2279
3237,2319
3307,2333
3740,2333
3805,2321
3864,2283
3904,2224
3918,2155
3918,2113
6212,2113
6212,2745
6194,2749
6171,2764
6152,2750
6082,2736
5433,2736
5368,2749
5308,2787
5268,2845
5254,2915
5254,3364
5266,3429
5305,3488
5363,3528
5433,3542
5533,3542
5533,3860
4307,3860
4563,3754
4767,3550
4878,3284
4878,2996
4768,2729
4564,2525
4298,2414
4009,2414
3743,2524
3539,2728
3428,2994
3428,3283
3538,3549
3742,3754
3998,3860
3236,3860
3236,3757
3293,3720
3333,3661
3347,3592
3347,3238
3335,3173
3297,3113
3238,3073
3169,3059
2854,3059
2789,3071
2729,3110
2689,3168
2675,3238
2675,3592
2688,3657
2726,3716
2784,3756
2787,3757
2787,3986
2804,4072
2853,4144
2951,4243
3009,4281
3024,4291
3110,4308
17538,4308
17538,4716
17489,4716
17359,4770
17260,4869
17206,4998
17206,5138
17260,5268
17359,5367
17488,5421
17538,5421
17538,5789
302,5789
302,3203
313,3219
392,3298
450,3337
538,3549
742,3754
1008,3864
1297,3864
1563,3754
1767,3550
1878,3284
1878,2996
1768,2729
1655,2615
1915,2615
2039,2740
2039,3073
1981,3110
1941,3168
1927,3238
1927,3592
1940,3657
1978,3716
2036,3756
2106,3770
2421,3770
2486,3758
2545,3720
2585,3661
2599,3592
2599,3238
2587,3173
2549,3113
2490,3073
2487,3073
2487,2983
2795,2983
2860,2971
2919,2933
2959,2874
2973,2805
2973,2450
2961,2385
2923,2326
2864,2286
2862,2285
2862,2113
3128,2113
3128,2155
" /> 
<polyline style="fill-rule:evenodd;"
points="13771,2745
13754,2749
13730,2764
13711,2750
13641,2736
12992,2736
12927,2749
12867,2787
12827,2845
12813,2915
12813,3364
12825,3429
12864,3488
12922,3528
12992,3542
13092,3542
13092,3860
11651,3860
11651,3542
11751,3542
11816,3530
11840,3515
11859,3528
11929,3542
12283,3542
12348,3530
12407,3492
12447,3433
12461,3364
12461,2915
12449,2850
12411,2790
12352,2750
12330,2746
12330,2113
13771,2113
13771,2745
" /> 
<polyline style="fill-rule:evenodd;"
points="8102,2745
8084,2749
8061,2764
8041,2750
7972,2736
7322,2736
7257,2749
7198,2787
7158,2845
7144,2915
7144,3364
7156,3429
7194,3488
7253,3528
7322,3542
7423,3542
7423,3860
5982,3860
5982,3542
6082,3542
6147,3530
6171,3515
6190,3528
6259,3542
6614,3542
6679,3530
6738,3492
6778,3433
6792,3364
6792,2915
6780,2850
6742,2790
6683,2750
6661,2746
6661,2113
8102,2113
8102,2745
" /> 
<polyline style="fill-rule:evenodd;"
points="9992,2745
9974,2749
9951,2764
9931,2750
9862,2736
9212,2736
9147,2749
9088,2787
9048,2845
9034,2915
9034,3364
9046,3429
9084,3488
9143,3528
9212,3542
9313,3542
9313,3860
7871,3860
7871,3542
7972,3542
8037,3530
8060,3515
8080,3528
8149,3542
8503,3542
8568,3530
8628,3492
8668,3433
8682,3364
8682,2915
8670,2850
8631,2790
8573,2750
8550,2746
8550,2113
9992,2113
9992,2745
" /> 
<polyline style="fill-rule:evenodd;"
points="11882,2745
11864,2749
11840,2764
11821,2750
11751,2736
11102,2736
11037,2749
10977,2787
10937,2845
10923,2915
10923,3364
10936,3429
10974,3488
11032,3528
11102,3542
11202,3542
11202,3860
9761,3860
9761,3542
9862,3542
9927,3530
9950,3515
9969,3528
10039,3542
10393,3542
10458,3530
10518,3492
10558,3433
10572,3364
10572,2915
10559,2850
10521,2790
10463,2750
10440,2746
10440,2113
11882,2113
11882,2745
" /> 
<polyline style="fill-rule:evenodd;"
points="15661,2189
15661,2745
15643,2749
15620,2764
15600,2750
15531,2736
14881,2736
14817,2749
14757,2787
14717,2845
14703,2915
14703,3364
14715,3429
14753,3488
14812,3528
14881,3542
14982,3542
14982,3860
13541,3860
13541,3542
13641,3542
13706,3530
13730,3515
13749,3528
13818,3542
14173,3542
14238,3530
14297,3492
14337,3433
14351,3364
14351,2915
14339,2850
14301,2790
14242,2750
14220,2746
14220,2113
15586,2113
15661,2189
" /> 
<polyline style="fill-rule:evenodd;"
points="786,1840
798,1905
836,1964
895,2004
917,2009
917,2155
934,2241
983,2314
1083,2414
1009,2414
743,2524
696,2571
696,1671
786,1671
786,1840
" /> 
<polyline style="fill-rule:evenodd;"
points="2413,2285
2355,2322
2315,2381
2315,2382
2229,2296
2250,2283
2290,2224
2304,2155
2304,2113
2352,2113
2413,2101
2413,2285
" /> 
<polyline style="fill-rule:evenodd;"
points="1514,2155
1516,2167
1470,2167
1365,2062
1365,2010
1383,2006
1443,1968
1483,1909
1497,1840
1497,1671
1514,1671
1514,2155
" /> 
<polyline style="fill-rule:evenodd;"
points="3128,1665
3108,1665
3128,1661
3128,1665
" /> 
</g>
<g style="fill:#FFFFFF; fill-opacity:1.0; 
stroke:#FFFFFF; stroke-width:50; stroke-opacity:1; 
stroke-linecap:round; stroke-linejoin:round;">
</g>
<g style="fill:#FFFFFF; fill-opacity:1.0; 
stroke:#FFFFFF; stroke-width:0; stroke-opacity:1; 
stroke-linecap:round; stroke-linejoin:round;">
<circle cx="1153.54" cy="3139.76" r="350" /> 
</g>
<g style="fill:#FFFFFF; fill-opacity:1.0; 
stroke:#FFFFFF; stroke-width:39.3701; stroke-opacity:1; 
stroke-linecap:round; stroke-linejoin:round;">
</g>
<g style="fill:#FFFFFF; fill-opacity:1.0; 
stroke:#FFFFFF; stroke-width:0; stroke-opacity:1; 
stroke-linecap:round; stroke-linejoin:round;">
<circle cx="4153.54" cy="3139.76" r="350" /> 
</g>
<g style="fill:#FFFFFF; fill-opacity:1.0; 
stroke:#FFFFFF; stroke-width:39.3701; stroke-opacity:1; 
stroke-linecap:round; stroke-linejoin:round;">
</g>
<g style="fill:#FFFFFF; fill-opacity:1.0; 
stroke:#FFFFFF; stroke-width:0; stroke-opacity:1; 
stroke-linecap:round; stroke-linejoin:round;">
<circle cx="17353.5" cy="3139.76" r="350" /> 
</g>
<g style="fill:#FFFFFF; fill-opacity:1.0; 
stroke:#FFFFFF; stroke-width:39.3701; stroke-opacity:1; 
stroke-linecap:round; stroke-linejoin:round;">
</g>
<g style="fill:#FFFFFF; fill-opacity:1.0; 
stroke:#FFFFFF; stroke-width:0; stroke-opacity:1; 
stroke-linecap:round; stroke-linejoin:round;">
<circle cx="20353.5" cy="3139.76" r="350" /> 
</g>
<g style="fill:#FFFFFF; fill-opacity:1.0; 
stroke:#FFFFFF; stroke-width:39.3701; stroke-opacity:1; 
stroke-linecap:round; stroke-linejoin:round;">
</g>
<g style="fill:#FFFFFF; fill-opacity:1.0; 
stroke:#FFFFFF; stroke-width:0; stroke-opacity:1; 
stroke-linecap:round; stroke-linejoin:round;">
<circle cx="17559.1" cy="5068.9" r="177.165" /> 
</g>
<g style="fill:#FFFFFF; fill-opacity:1.0; 
stroke:#FFFFFF; stroke-width:39.3701; stroke-opacity:1; 
stroke-linecap:round; stroke-linejoin:round;">
</g>
<g style="fill:#FFFFFF; fill-opacity:1.0; 
stroke:#FFFFFF; stroke-width:0; stroke-opacity:1; 
stroke-linecap:round; stroke-linejoin:round;">
<circle cx="20236.2" cy="5068.9" r="177.165" /> 
</g>
<g style="fill:#FFFFFF; fill-opacity:1.0; 
stroke:#FFFFFF; stroke-width:39.3701; stroke-opacity:1; 
stroke-linecap:round; stroke-linejoin:round;">
</g>
<g style="fill:#000000; fill-opacity:1.0; 
stroke:#000000; stroke-width:39.3701; stroke-opacity:1; 
stroke-linecap:round; stroke-linejoin:round;">
</g>
<g style="fill:#000000; fill-opacity:1.0; 
stroke:#000000; stroke-width:59.0551; stroke-opacity:1; 
stroke-linecap:round; stroke-linejoin:round;">
</g>
<g style="fill:#000000; fill-opacity:0.0; 
stroke:#000000; stroke-width:59.0551; stroke-opacity:1; 
stroke-linecap:round; stroke-linejoin:round;">
<path d="M98 5994
L98 285
" />
<path d="M21397 5994
L98 5994
" />
<path d="M21397 285
L21397 5994
" />
<path d="M98 285
L21397 285
" />
</g> 
</svg>
